<svg width="19.78" height="18.2" viewBox="0 0 19.78 18.2" xmlns="http://www.w3.org/2000/svg">
<g stroke-linecap="round" fill-rule="evenodd" font-size="9pt" stroke="currentColor" stroke-width="0.25mm" fill="currentColor">
<path d="M 7.42 15.34 L 6.72 15.34 L 7.34 10.7 L 5 10.7 L 5 10 L 7.44 10 L 7.88 6.7 L 5.58 6.7 L 5.58 5.98 L 7.98 5.98 L 8.62 1.34 L 9.3 1.34 L 8.68 5.98 L 11.78 5.98 L 12.4 1.34 L 13.1 1.34 L 12.46 5.98 L 14.78 5.98 L 14.78 6.7 L 12.36 6.7 L 11.92 10 L 14.18 10 L 14.18 10.7 L 11.84 10.7 L 11.2 15.34 L 10.5 15.34 L 11.12 10.7 L 8.04 10.7 L 7.42 15.34 Z M 19.78 18.2 L 16.94 18.2 L 16.94 17.46 L 19.06 17.46 L 19.06 0.74 L 16.94 0.74 L 16.94 0 L 19.78 0 L 19.78 18.2 Z M 2.84 18.2 L 0 18.2 L 0 0 L 2.84 0 L 2.84 0.74 L 0.72 0.74 L 0.72 17.46 L 2.84 17.46 L 2.84 18.2 Z M 8.6 6.7 L 8.14 10 L 11.22 10 L 11.68 6.7 L 8.6 6.7 Z" vector-effect="non-scaling-stroke"/></g></svg>